<svg xmlns="http://www.w3.org/2000/svg" viewBox="0 0 260 80" fill="none">
  <defs>
    <linearGradient id="nd-grad" gradientUnits="userSpaceOnUse" x1="20" y1="40" x2="53" y2="40">
      <stop offset="0%"   stop-color="#2D6A4F"/>
      <stop offset="100%" stop-color="#E8527A"/>
    </linearGradient>
    <clipPath id="n-clip">
      <path d="M29.596 64 L20.356 64 L20.356 30.736 L28.474 30.736 L29.134 36.148 Q30.652 33.376 33.457 31.66 Q36.262 29.944 40.222 29.944 Q44.314 29.944 47.152 31.693 Q49.99 33.442 51.475 36.742 Q52.96 40.042 52.96 44.86 L52.96 64 L43.786 64 L43.786 45.718 Q43.786 41.89 42.169 39.811 Q40.552 37.732 37.054 37.732 Q34.942 37.732 33.226 38.755 Q31.51 39.778 30.553 41.659 Q29.596 43.54 29.596 46.246 L29.596 64 Z"/>
    </clipPath>
  </defs>

  <!-- ── SYMBOL MARK ─────────────────────────────── -->
  <path
    d="M29.596 64 L20.356 64 L20.356 30.736 L28.474 30.736 L29.134 36.148 Q30.652 33.376 33.457 31.66 Q36.262 29.944 40.222 29.944 Q44.314 29.944 47.152 31.693 Q49.99 33.442 51.475 36.742 Q52.96 40.042 52.96 44.86 L52.96 64 L43.786 64 L43.786 45.718 Q43.786 41.89 42.169 39.811 Q40.552 37.732 37.054 37.732 Q34.942 37.732 33.226 38.755 Q31.51 39.778 30.553 41.659 Q29.596 43.54 29.596 46.246 L29.596 64 Z"
    fill="url(#nd-grad)"/>

  <!-- Road dashes clipped to n glyph — centred in each letter section -->
  <g clip-path="url(#n-clip)" opacity="0.75">
    <!-- Left stem: centre x=25 -->
    <line x1="25" y1="33" x2="25" y2="62"
          stroke="white" stroke-width="1.5" stroke-linecap="round" stroke-dasharray="4 3"/>
    <!-- Arch: from left-stem centre (25,43) through peak ~(37,34) to right-stem centre (48,45) -->
    <path d="M 25 43 C 30 35 48 27 48 45"
          stroke="white" stroke-width="1.5" stroke-linecap="round" stroke-dasharray="4 3" fill="none"/>
    <!-- Right stem: centre x=48 -->
    <line x1="48" y1="45" x2="48" y2="62"
          stroke="white" stroke-width="1.5" stroke-linecap="round" stroke-dasharray="4 3"/>
  </g>

  <!-- ── WORDMARK ────────────────────────────────── -->
  <text
    x="90" y="52"
    font-family="'DM Sans', system-ui, sans-serif"
    font-size="24"
    font-weight="800"
    letter-spacing="-1.4">
    <tspan fill="#2D6A4F">newdr</tspan><tspan fill="#E8527A">y</tspan><tspan fill="#2D6A4F">ve</tspan>
  </text>
</svg>
